<svg width="13" height="13" viewBox="0 0 13 13" fill="none" xmlns="http://www.w3.org/2000/svg">
<path d="M5.82669 1.62V4.20667C5.82669 4.42085 5.78439 4.63292 5.70223 4.83071C5.62006 5.0285 5.49965 5.20812 5.34789 5.35926C5.19613 5.5104 5.01602 5.63008 4.8179 5.71143C4.61977 5.79278 4.40753 5.83421 4.19335 5.83333H1.62002C1.40642 5.83463 1.19476 5.79278 0.997722 5.7103C0.800686 5.62782 0.622332 5.50641 0.473352 5.35333C0.322397 5.20311 0.202813 5.02438 0.121554 4.82753C0.0402952 4.63067 -0.00101725 4.41963 1.90226e-05 4.20667V1.62667C1.54091e-05 1.1964 0.17048 0.783659 0.474099 0.47879C0.777718 0.173922 1.18976 0.00176339 1.62002 0H4.20002C4.4134 0.00020501 4.62461 0.0427351 4.82144 0.125128C5.01827 0.207521 5.19679 0.328139 5.34669 0.48C5.49865 0.628429 5.61939 0.805745 5.70182 1.00152C5.78426 1.1973 5.82671 1.40758 5.82669 1.62ZM12.9934 1.62667V4.20667C12.9899 4.63587 12.8183 5.0466 12.5154 5.35073C12.2126 5.65485 11.8025 5.82811 11.3734 5.83333H8.78669C8.35548 5.8307 7.94209 5.66104 7.63335 5.36C7.48249 5.20833 7.36303 5.02838 7.28181 4.83048C7.20059 4.63257 7.1592 4.42059 7.16002 4.20667V1.62667C7.1591 1.41312 7.20112 1.20158 7.28358 1.00459C7.36604 0.807609 7.48725 0.629212 7.64002 0.48C7.78991 0.328139 7.96844 0.207521 8.16527 0.125128C8.36209 0.0427351 8.57331 0.00020501 8.78669 0H11.3667C11.797 0.00348471 12.2088 0.175984 12.5131 0.480291C12.8174 0.784598 12.9899 1.19633 12.9934 1.62667ZM12.9934 8.79333V11.3733C12.9899 11.8025 12.8183 12.2133 12.5154 12.5174C12.2126 12.8215 11.8025 12.9948 11.3734 13H8.78669C8.35274 13.0044 7.93419 12.8394 7.62002 12.54C7.46856 12.3888 7.34871 12.2089 7.26745 12.0109C7.18619 11.8129 7.14513 11.6007 7.14669 11.3867V8.80667C7.14581 8.59313 7.18785 8.38159 7.2703 8.18462C7.35276 7.98764 7.47395 7.80924 7.62669 7.66C7.7766 7.50817 7.95513 7.38757 8.15195 7.30518C8.34878 7.22279 8.55998 7.18024 8.77335 7.18H11.3534C11.7837 7.18349 12.1954 7.35598 12.4997 7.66029C12.804 7.9646 12.9765 8.37633 12.98 8.80667L12.9934 8.79333ZM5.82669 8.8V11.38C5.82144 11.8103 5.64725 12.2214 5.3417 12.5244C5.03614 12.8275 4.62371 12.9983 4.19335 13H1.62002C1.40703 13.0009 1.19598 12.9596 0.99903 12.8785C0.802084 12.7974 0.623146 12.6781 0.47254 12.5275C0.321933 12.3769 0.202638 12.1979 0.121538 12.001C0.0404375 11.804 -0.000862928 11.593 1.90226e-05 11.38V8.8C0.00173649 8.36964 0.172547 7.95721 0.475608 7.65165C0.778668 7.3461 1.18969 7.17191 1.62002 7.16667H4.20002C4.6323 7.17039 5.04607 7.3426 5.35335 7.64667C5.65741 7.95341 5.8276 8.3681 5.82669 8.8Z" fill="#FAC1D9"/>
</svg>
