<svg width="16" height="16" viewBox="0 0 16 16" fill="none" xmlns="http://www.w3.org/2000/svg">
<path opacity="0.983" fill-rule="evenodd" clip-rule="evenodd" d="M6.79688 2.48631C6.92231 2.48114 7.04731 2.48634 7.17188 2.50193C7.65575 2.71786 8.13494 2.94182 8.60938 3.17381C8.33553 4.46421 8.65844 5.57881 9.57812 6.51756C8.71828 6.93184 7.85369 7.33809 6.98438 7.73631C5.05722 6.85596 3.14053 5.96015 1.23438 5.04881C3.0911 4.19324 4.94525 3.33909 6.79688 2.48631Z" fill="#FBCCE0"/>
<path opacity="0.991" fill-rule="evenodd" clip-rule="evenodd" d="M0.982422 5.48438C2.89173 6.35044 4.79798 7.22544 6.70117 8.10938C6.73242 10.4009 6.74283 12.6926 6.73242 14.9844C4.86802 14.1512 3.01386 13.2918 1.16992 12.4062C1.08849 12.3457 1.0312 12.2676 0.998047 12.1719C0.982422 9.94272 0.977213 7.71356 0.982422 5.48438Z" fill="#FBCCE0"/>
<path opacity="0.981" fill-rule="evenodd" clip-rule="evenodd" d="M11.5472 0.985184C13.0941 0.872631 14.1826 1.51846 14.8128 2.92268C15.2669 4.46693 14.8346 5.6909 13.5159 6.59456C12.8183 6.98165 12.0787 7.09103 11.2972 6.92268C10.0158 6.56315 9.25015 5.72981 9.0003 4.42268C8.87255 2.87504 9.51318 1.7865 10.9222 1.15706C11.1318 1.08913 11.3401 1.03183 11.5472 0.985184ZM12.8909 2.51643C13.1495 2.49163 13.2485 2.60622 13.1878 2.86018C12.8527 3.7075 12.5089 4.55125 12.1566 5.39143C12.076 5.44915 11.9874 5.46478 11.8909 5.43831C11.5221 5.10072 11.1627 4.75175 10.8128 4.39143C10.7138 4.07372 10.8232 3.96434 11.1409 4.06331C11.3862 4.31378 11.6362 4.55856 11.8909 4.79768C12.182 4.12793 12.458 3.45084 12.7191 2.76643C12.7543 2.66351 12.8116 2.58018 12.8909 2.51643Z" fill="#FBCCE0"/>
<path opacity="0.99" fill-rule="evenodd" clip-rule="evenodd" d="M9.95508 6.85938C10.2467 7.01553 10.5488 7.15616 10.8613 7.28125C11.5675 7.51262 12.2758 7.52825 12.9863 7.32812C12.9916 8.94275 12.9863 10.5573 12.9707 12.1719C12.8686 12.3719 12.7071 12.5021 12.4863 12.5625C10.7314 13.3852 8.97096 14.1925 7.20508 14.9844C7.19986 12.7031 7.20508 10.4218 7.22071 8.14062C8.13265 7.70803 9.04408 7.28094 9.95508 6.85938Z" fill="#FBCCE0"/>
</svg>
