<svg width="16" height="16" viewBox="0 0 16 16" fill="none" xmlns="http://www.w3.org/2000/svg">
<path opacity="0.955" fill-rule="evenodd" clip-rule="evenodd" d="M7.85013 1C8.9391 1.01853 9.58895 1.56084 9.79964 2.62693C9.85938 3.42858 9.54614 4.03167 8.85994 4.43619C7.87411 4.85249 7.0653 4.63277 6.43357 3.777C6.05057 3.06169 6.08796 2.36977 6.54578 1.70126C6.89007 1.29311 7.32485 1.05936 7.85013 1ZM7.87818 1.30856C7.95299 1.30856 8.02777 1.30856 8.10258 1.30856C8.10258 1.44881 8.10258 1.58906 8.10258 1.72931C8.02777 1.72931 7.95299 1.72931 7.87818 1.72931C7.87818 1.58906 7.87818 1.44881 7.87818 1.30856ZM6.98056 1.70126C7.10659 1.75204 7.20942 1.83619 7.28912 1.95372C7.25223 2.00465 7.21015 2.0514 7.16289 2.09397C7.06895 2.00471 6.98011 1.91121 6.89641 1.81347C6.92513 1.77555 6.95318 1.73815 6.98056 1.70126ZM8.9441 1.70126C9.01102 1.72576 9.06713 1.76784 9.1124 1.82749C9.02314 1.92144 8.92965 2.01027 8.83189 2.09397C8.78095 2.05709 8.73419 2.01501 8.69164 1.96774C8.78151 1.88258 8.86567 1.79376 8.9441 1.70126ZM7.87818 2.12202C7.95299 2.12202 8.02777 2.12202 8.10258 2.12202C8.09792 2.29058 8.10261 2.45888 8.11661 2.62693C8.13997 2.6503 8.16337 2.67368 8.18673 2.69706C8.33604 2.71106 8.48564 2.71574 8.63554 2.71108C8.63554 2.78588 8.63554 2.86068 8.63554 2.93549C8.48564 2.93083 8.33604 2.9355 8.18673 2.94951C8.06449 3.07355 7.93826 3.07823 7.80805 2.96354C7.74707 2.83835 7.76575 2.72615 7.86415 2.62693C7.87815 2.45888 7.88283 2.29058 7.87818 2.12202ZM6.47565 2.71108C6.6159 2.71108 6.75616 2.71108 6.89641 2.71108C6.89641 2.78588 6.89641 2.86068 6.89641 2.93549C6.75616 2.93549 6.6159 2.93549 6.47565 2.93549C6.47565 2.86068 6.47565 2.78588 6.47565 2.71108ZM9.08435 2.71108C9.2246 2.71108 9.36485 2.71108 9.50511 2.71108C9.50511 2.78588 9.50511 2.86068 9.50511 2.93549C9.36485 2.93549 9.2246 2.93549 9.08435 2.93549C9.08435 2.86068 9.08435 2.78588 9.08435 2.71108ZM7.12081 3.52455C7.18774 3.54904 7.24384 3.59112 7.28912 3.65077C7.1986 3.75282 7.1051 3.851 7.00861 3.9453C6.95251 3.90791 6.90575 3.86115 6.86836 3.80505C6.95313 3.711 7.03728 3.61749 7.12081 3.52455ZM8.83189 3.52455C8.92398 3.62612 9.01748 3.72895 9.1124 3.8331C9.07501 3.8892 9.02825 3.93596 8.97215 3.97335C8.87439 3.88965 8.7809 3.80082 8.69164 3.70687C8.73369 3.64157 8.78045 3.5808 8.83189 3.52455ZM7.87818 3.91725C7.95299 3.91725 8.02777 3.91725 8.10258 3.91725C8.10258 4.05751 8.10258 4.19776 8.10258 4.33801C8.02777 4.33801 7.95299 4.33801 7.87818 4.33801C7.87818 4.19776 7.87818 4.05751 7.87818 3.91725Z" fill="#FAC1D9"/>
<path opacity="0.972" fill-rule="evenodd" clip-rule="evenodd" d="M12.8143 3.46663C13.416 3.41971 13.8508 3.66282 14.1187 4.19594C14.3251 4.88599 14.1147 5.40492 13.4876 5.75275C12.8651 5.95353 12.3649 5.78992 11.9869 5.26186C11.692 4.62242 11.8183 4.08478 12.3655 3.64896C12.5087 3.56307 12.6583 3.50229 12.8143 3.46663Z" fill="#FAC1D9"/>
<path opacity="0.972" fill-rule="evenodd" clip-rule="evenodd" d="M2.82976 3.52344C3.81049 3.57718 4.23593 4.09143 4.10606 5.06622C3.83568 5.73214 3.34479 5.99862 2.63341 5.86566C1.89768 5.55825 1.64055 5.02063 1.86202 4.25275C2.05709 3.8355 2.37967 3.59239 2.82976 3.52344Z" fill="#FAC1D9"/>
<path opacity="0.921" fill-rule="evenodd" clip-rule="evenodd" d="M8.04439 5.74004C8.39048 5.73535 8.73642 5.74004 9.08226 5.75406C9.12972 5.79336 9.14843 5.84478 9.13836 5.90834C9.52487 5.97286 9.6698 6.19726 9.57314 6.58155C9.48767 6.74632 9.35208 6.83984 9.16641 6.86206C9.17104 6.96534 9.16638 7.06817 9.15238 7.17061C9.13836 7.18464 9.12433 7.19867 9.11031 7.21269C8.75499 7.2314 8.39971 7.2314 8.04439 7.21269C8.03036 7.19867 8.01634 7.18464 8.00231 7.17061C7.9836 6.71247 7.9836 6.25429 8.00231 5.79614C8.02243 5.78088 8.03645 5.76217 8.04439 5.74004ZM9.16641 6.07664C9.41056 6.15356 9.49006 6.31252 9.40484 6.5535C9.34327 6.62167 9.26846 6.66843 9.18044 6.69376C9.16641 6.48826 9.16175 6.28256 9.16641 6.07664Z" fill="#FAC1D9"/>
<path opacity="0.957" fill-rule="evenodd" clip-rule="evenodd" d="M2.77213 5.96389C3.41847 5.92919 3.88131 6.20033 4.16064 6.77736C4.24824 6.9766 4.2716 7.18229 4.23076 7.39447C3.9596 7.19343 3.68846 6.99242 3.4173 6.79138C3.03893 6.64322 2.7444 6.74139 2.53371 7.08591C2.45033 7.34041 2.48773 7.57416 2.64591 7.78717C3.17671 8.18583 3.70501 8.58788 4.23076 8.99335C4.25808 9.05626 4.26745 9.12171 4.25881 9.1897C4.22142 9.1897 4.184 9.1897 4.14661 9.1897C4.14661 9.55436 4.14661 9.91901 4.14661 10.2837C4.75444 10.279 5.36221 10.2837 5.96989 10.2977C6.01197 10.3398 6.05405 10.3818 6.09612 10.4239C6.50532 11.4178 6.89803 12.4182 7.27424 13.4253C7.27778 14.0159 6.98325 14.273 6.39065 14.1967C6.26731 14.1514 6.15977 14.0812 6.06807 13.9863C5.72504 13.1629 5.39309 12.3354 5.07228 11.5039C4.28723 11.5194 3.50183 11.5194 2.71603 11.5039C2.12001 11.366 1.76003 10.9967 1.63609 10.3959C1.61739 10.6857 1.61739 10.9756 1.63609 11.2654C1.67628 11.4084 1.76511 11.5066 1.90257 11.56C2.93105 11.574 3.95957 11.5787 4.98813 11.574C4.98813 11.7703 4.98813 11.9667 4.98813 12.1631C4.83853 12.1631 4.68891 12.1631 4.53932 12.1631C4.71388 13.0966 4.90089 14.027 5.10033 14.9541C5.05825 14.9588 5.01618 14.9634 4.9741 14.9681C4.91853 14.9645 4.8718 14.9458 4.83385 14.912C4.64246 13.9971 4.46013 13.0808 4.28686 12.1631C4.06167 12.1538 3.83727 12.1631 3.61365 12.1911C3.80784 13.1153 3.99486 14.041 4.17466 14.9681C4.09051 14.9681 4.00636 14.9681 3.92221 14.9681C3.73957 14.041 3.5479 13.1153 3.34717 12.1911C3.25198 12.1643 3.1538 12.1549 3.05264 12.1631C2.87937 13.0808 2.69704 13.9971 2.50566 14.912C2.46771 14.9458 2.42096 14.9645 2.3654 14.9681C2.32333 14.9634 2.28125 14.9588 2.23918 14.9541C2.43862 14.027 2.62563 13.0966 2.80019 12.1631C2.53838 12.1631 2.27657 12.1631 2.01477 12.1631C1.82418 13.0973 1.63718 14.0323 1.45376 14.9681C1.36759 14.977 1.28344 14.9677 1.20131 14.9401C1.40535 14.018 1.61105 13.097 1.81842 12.1771C1.62997 12.1708 1.44297 12.1521 1.25741 12.121C1.14547 12.0652 1.07535 11.9763 1.04703 11.8545C1.033 10.826 1.02833 9.7975 1.033 8.76894C1.22936 8.76894 1.42571 8.76894 1.62206 8.76894C1.61739 8.20785 1.62206 7.64684 1.63609 7.08591C1.77058 6.46052 2.14926 6.0865 2.77213 5.96389Z" fill="#FAC1D9"/>
<path opacity="0.972" fill-rule="evenodd" clip-rule="evenodd" d="M12.7875 5.99406C13.5273 5.94057 14.0275 6.25846 14.2882 6.94778C14.3202 7.54974 14.3342 8.15283 14.3303 8.75704C14.3342 9.36124 14.3202 9.96433 14.2882 10.5663C14.0858 11.1706 13.665 11.4885 13.026 11.52C12.3109 11.4896 11.5956 11.4849 10.8801 11.506C10.571 12.3066 10.2578 13.106 9.94041 13.9043C9.74939 14.1676 9.49225 14.2657 9.16903 14.1988C8.81766 14.062 8.66339 13.8049 8.70619 13.4274C9.07845 12.4416 9.46182 11.4598 9.85626 10.4821C9.9088 10.4202 9.96959 10.3688 10.0386 10.3279C10.6369 10.3138 11.2353 10.3092 11.8338 10.3138C11.8338 9.95852 11.8338 9.60324 11.8338 9.24792C11.7837 9.25591 11.7369 9.24657 11.6936 9.21987C12.2342 9.0268 12.697 8.71824 13.0821 8.2942C13.3523 7.95168 13.5253 7.56363 13.601 7.13011C13.5518 6.75364 13.3414 6.53389 12.9699 6.47092C12.5779 6.52623 12.3535 6.75064 12.2967 7.14413C12.1586 7.41779 11.9576 7.63285 11.6936 7.78929C11.6717 7.75482 11.6576 7.71743 11.6515 7.67709C10.7356 7.91415 9.9642 7.67572 9.33733 6.9618C9.68709 6.76786 9.78995 6.48736 9.64588 6.12029C9.73994 6.11423 9.82409 6.14228 9.89834 6.20444C10.4395 6.91485 11.094 7.04576 11.8619 6.59715C12.0991 6.28245 12.4077 6.08144 12.7875 5.99406Z" fill="#FAC1D9"/>
<path opacity="0.956" fill-rule="evenodd" clip-rule="evenodd" d="M12.8134 6.66406C13.3072 6.66754 13.4896 6.91065 13.3604 7.39338C13.1202 8.09178 12.6574 8.58266 11.9719 8.86603C11.3055 9.13399 10.6136 9.2462 9.89613 9.20263C9.54255 9.12676 9.42566 8.91638 9.5455 8.5715C9.60508 8.46454 9.69391 8.39441 9.81198 8.36112C10.5854 8.37812 11.3148 8.20981 11.9999 7.85621C12.3458 7.62746 12.5281 7.30488 12.5469 6.88847C12.6075 6.77612 12.6964 6.70134 12.8134 6.66406Z" fill="#FAC1D9"/>
<path opacity="0.953" fill-rule="evenodd" clip-rule="evenodd" d="M3.02514 6.91957C3.13098 6.91292 3.23383 6.92695 3.33369 6.96165C3.80761 7.33284 4.28915 7.69281 4.7783 8.04159C5.10699 7.88894 5.42957 7.7253 5.74604 7.55071C5.99673 7.45427 6.19774 7.51506 6.34913 7.73304C6.43488 7.98055 6.37409 8.18156 6.1668 8.33612C5.73084 8.56813 5.2914 8.79253 4.84842 9.00934C4.69583 9.04227 4.55558 9.01422 4.42767 8.92518C3.89002 8.51845 3.3524 8.11172 2.81476 7.70499C2.59726 7.36213 2.66739 7.10033 3.02514 6.91957Z" fill="#FAC1D9"/>
<path opacity="0.935" fill-rule="evenodd" clip-rule="evenodd" d="M6.58666 7.19852C6.94338 7.18971 7.29867 7.19905 7.65258 7.22657C7.68997 7.70343 7.68997 8.18029 7.65258 8.65714C7.30793 8.68929 6.96195 8.69398 6.61471 8.67117C6.58902 8.66068 6.56563 8.64665 6.54459 8.62909C6.54636 8.50337 6.52299 8.38651 6.47446 8.27846C6.53286 8.17386 6.57025 8.06166 6.58666 7.94186C6.5507 7.80856 6.52734 7.67299 6.51654 7.53512C6.48711 7.56365 6.45438 7.56834 6.41836 7.54915C6.30647 7.42043 6.34389 7.35964 6.53056 7.36682C6.52363 7.30068 6.54232 7.24458 6.58666 7.19852Z" fill="#FAC1D9"/>
<path opacity="0.912" fill-rule="evenodd" clip-rule="evenodd" d="M14.3572 8.76953C14.5722 8.76953 14.7873 8.76953 15.0023 8.76953C15.0155 9.81789 15.0015 10.8651 14.9603 11.9112C14.9088 12 14.8387 12.0702 14.7499 12.1216C14.5744 12.1585 14.3967 12.1725 14.2169 12.1636C14.3967 13.0907 14.5837 14.0164 14.7779 14.9406C14.6958 14.9682 14.6116 14.9776 14.5255 14.9687C14.3421 14.0329 14.1551 13.0979 13.9645 12.1636C13.7027 12.1636 13.4408 12.1636 13.179 12.1636C13.3536 13.0972 13.5406 14.0276 13.7401 14.9547C13.698 14.9594 13.6559 14.964 13.6138 14.9687C13.5583 14.9651 13.5115 14.9464 13.4736 14.9126C13.2822 13.9977 13.0999 13.0814 12.9266 12.1636C12.8254 12.1555 12.7273 12.1649 12.6321 12.1917C12.4313 13.1159 12.2397 14.0415 12.057 14.9687C11.9729 14.9687 11.8887 14.9687 11.8046 14.9687C11.9844 14.0416 12.1714 13.1159 12.3656 12.1917C12.142 12.1637 11.9176 12.1544 11.6924 12.1636C11.5191 13.0814 11.3368 13.9977 11.1454 14.9126C11.1074 14.9464 11.0607 14.9651 11.0051 14.9687C10.9631 14.964 10.921 14.9594 10.8789 14.9547C11.0784 14.0275 11.2654 13.0971 11.4399 12.1636C11.2903 12.1636 11.1407 12.1636 10.9911 12.1636C10.9911 11.9766 10.9911 11.7896 10.9911 11.6026C12.0197 11.6073 13.0482 11.6026 14.0767 11.5886C14.2149 11.5346 14.3037 11.4364 14.3431 11.2941C14.3572 10.4526 14.3619 9.6111 14.3572 8.76953Z" fill="#FAC1D9"/>
<path opacity="0.959" fill-rule="evenodd" clip-rule="evenodd" d="M4.34375 9.41406C6.7748 9.41406 9.20583 9.41406 11.6369 9.41406C11.6369 9.64781 11.6369 9.88158 11.6369 10.1153C9.20583 10.1153 6.7748 10.1153 4.34375 10.1153C4.34375 9.88158 4.34375 9.64781 4.34375 9.41406Z" fill="#FAC1D9"/>
<path opacity="0.958" fill-rule="evenodd" clip-rule="evenodd" d="M7.76679 10.3125C7.91639 10.3125 8.06601 10.3125 8.2156 10.3125C8.2156 11.6215 8.2156 12.9305 8.2156 14.2396C8.60766 14.2712 8.991 14.346 9.36567 14.464C9.36567 14.6323 9.36567 14.8006 9.36567 14.9689C8.44935 14.9689 7.53305 14.9689 6.61672 14.9689C6.60749 14.7995 6.61683 14.6312 6.64477 14.464C7.00668 14.3289 7.38068 14.254 7.76679 14.2396C7.76679 12.9305 7.76679 11.6215 7.76679 10.3125Z" fill="#FAC1D9"/>
</svg>
