<svg width="16" height="16" viewBox="0 0 16 16" fill="none" xmlns="http://www.w3.org/2000/svg">
<path opacity="0.969" fill-rule="evenodd" clip-rule="evenodd" d="M7.02968 1C7.09333 1 7.157 1 7.22065 1C7.73455 1.10033 8.01649 1.41408 8.06642 1.94126C8.05395 2.02543 8.03578 2.10728 8.01186 2.1868C8.47566 2.19589 8.93947 2.20499 9.40328 2.21408C9.49803 2.2228 9.57532 2.26372 9.63518 2.33686C9.67957 2.67983 9.68865 3.02541 9.66246 3.3736C9.6014 3.55285 9.47863 3.66653 9.29415 3.71464C7.81929 3.74157 6.34602 3.73247 4.87434 3.68735C4.71536 3.60118 4.61987 3.46931 4.58787 3.29175C4.56967 3.00983 4.56967 2.72791 4.58787 2.44599C4.63471 2.30817 4.7302 2.23087 4.87434 2.21408C5.32895 2.20044 5.78367 2.1959 6.23847 2.20044C6.13546 1.55029 6.3992 1.15014 7.02968 1ZM7.02968 1.46381C7.50573 1.48902 7.66943 1.72547 7.52077 2.17316C7.25994 2.2091 7.00076 2.2091 6.74321 2.17316C6.60436 1.8416 6.69985 1.60515 7.02968 1.46381Z" fill="#FAC1D9"/>
<path opacity="0.986" fill-rule="evenodd" clip-rule="evenodd" d="M11.0394 14.9689C8.41116 14.9689 5.7829 14.9689 3.15467 14.9689C2.77629 14.8952 2.54438 14.6678 2.45895 14.2868C2.44077 10.5945 2.44077 6.90223 2.45895 3.20998C2.50233 2.90931 2.66148 2.6956 2.9364 2.56883C3.39831 2.52907 3.86211 2.51543 4.32782 2.52791C4.3233 2.80997 4.32782 3.0919 4.34147 3.37367C4.4453 3.72304 4.67721 3.92768 5.03718 3.98753C6.4286 4.00573 7.82002 4.00573 9.21144 3.98753C9.56505 3.9522 9.79696 3.76575 9.90715 3.42824C9.94551 3.12986 9.95915 2.82975 9.94808 2.52791C10.3756 2.52336 10.803 2.52791 11.2304 2.54155C11.5259 2.61885 11.7124 2.80528 11.7897 3.10084C11.8033 5.61083 11.8079 8.12085 11.8033 10.6309C10.7846 10.6012 10.0435 11.0378 9.57976 11.9405C9.21188 12.9642 9.4347 13.8327 10.2482 14.546C10.4989 14.7167 10.7626 14.8576 11.0394 14.9689ZM4.8462 5.0652C5.07818 5.04679 5.16459 5.14683 5.10538 5.36531C4.86439 5.6063 4.62338 5.84732 4.38239 6.08831C4.30054 6.14287 4.21869 6.14287 4.13685 6.08831C4.03227 5.98373 3.92767 5.87913 3.82309 5.77456C3.73245 5.54145 3.80975 5.43688 4.055 5.4608C4.13172 5.51474 4.20445 5.57386 4.27326 5.63814C4.4739 5.45567 4.66488 5.2647 4.8462 5.0652ZM6.18305 5.3926C7.5745 5.38804 8.96592 5.3926 10.3573 5.40624C10.4919 5.47895 10.5238 5.58352 10.4528 5.71999C10.4141 5.74618 10.3732 5.76891 10.33 5.7882C8.9659 5.8064 7.60176 5.8064 6.23762 5.7882C6.08595 5.74842 6.03594 5.65293 6.08756 5.50173C6.1251 5.46885 6.15692 5.43248 6.18305 5.3926ZM4.90076 7.13869C5.12118 7.17937 5.1803 7.29759 5.0781 7.49337C4.85528 7.71619 4.63249 7.93898 4.40967 8.1618C4.33197 8.23058 4.25012 8.23966 4.16413 8.18908C4.04136 8.06631 3.91858 7.94354 3.79581 7.82076C3.76386 7.58886 3.85935 7.50248 4.08228 7.56158C4.1414 7.6207 4.2005 7.67979 4.25962 7.73892C4.46227 7.52248 4.67598 7.32242 4.90076 7.13869ZM6.18305 7.49337C7.58359 7.48881 8.98412 7.49337 10.3846 7.50701C10.5301 7.62523 10.5301 7.74347 10.3846 7.86169C8.98409 7.87989 7.58356 7.87989 6.18305 7.86169C6.06857 7.78036 6.04585 7.67578 6.11485 7.54794C6.14199 7.53249 6.16472 7.5143 6.18305 7.49337ZM4.87348 9.23947C5.05543 9.22596 5.14183 9.30781 5.13267 9.48501C4.88341 9.76158 4.62422 10.0299 4.35511 10.2899C4.27863 10.3105 4.20587 10.3014 4.13685 10.2626C4.02316 10.1489 3.9095 10.0352 3.79581 9.92154C3.75038 9.7033 3.83679 9.60781 4.055 9.63507C4.10956 9.68963 4.16413 9.7442 4.21869 9.79877C4.24598 9.81696 4.27326 9.81696 4.30054 9.79877C4.48866 9.60607 4.67964 9.41962 4.87348 9.23947ZM6.21034 9.56686C7.58359 9.56231 8.95684 9.56686 10.33 9.5805C10.4881 9.63752 10.529 9.74213 10.4528 9.89426C10.4282 9.92702 10.3964 9.94978 10.3573 9.96246C8.97498 9.98066 7.59267 9.98066 6.21034 9.96246C6.08366 9.90593 6.04274 9.81044 6.08756 9.67599C6.12568 9.63316 6.1666 9.59676 6.21034 9.56686Z" fill="#FAC1D9"/>
<path opacity="0.972" fill-rule="evenodd" clip-rule="evenodd" d="M11.4472 10.875C12.7012 10.9195 13.3924 11.5652 13.5207 12.8121C13.4883 13.6186 13.1154 14.2052 12.4021 14.5718C11.6421 14.8738 10.9419 14.7738 10.3013 14.2717C9.59503 13.5371 9.47226 12.714 9.93301 11.8026C10.2901 11.2534 10.7949 10.9442 11.4472 10.875ZM12.1566 12.1573C12.4014 12.1468 12.4787 12.2559 12.3885 12.4847C12.0747 12.7984 11.761 13.1122 11.4472 13.4259C11.3563 13.4805 11.2653 13.4805 11.1744 13.4259C11.0425 13.2941 10.9106 13.1622 10.7788 13.0303C10.6881 12.7972 10.7654 12.6927 11.0107 12.7166C11.1016 12.8075 11.1926 12.8985 11.2835 12.9894C11.3017 13.0076 11.3199 13.0076 11.3381 12.9894C11.6164 12.7156 11.8892 12.4382 12.1566 12.1573Z" fill="#FAC1D9"/>
</svg>
