<svg width="16" height="16" viewBox="0 0 16 16" fill="none" xmlns="http://www.w3.org/2000/svg">
<path opacity="0.982" fill-rule="evenodd" clip-rule="evenodd" d="M3.97735 1.14062C4.07535 1.14062 4.17332 1.14062 4.27132 1.14062C4.39783 1.20047 4.48247 1.29846 4.5252 1.4346C4.5341 2.07599 4.54303 2.71738 4.55193 3.35877C4.67029 3.62384 4.8618 3.69956 5.12651 3.58593C5.18554 3.53587 5.23453 3.47797 5.27349 3.41222C5.31249 2.94194 5.32585 2.4698 5.31358 1.99581C5.63428 1.99581 5.95497 1.99581 6.27567 1.99581C6.27123 1.81743 6.27567 1.63926 6.28903 1.46132C6.32094 1.30951 6.40555 1.20261 6.54292 1.14062C6.64092 1.14062 6.73889 1.14062 6.83689 1.14062C6.9514 1.19733 7.03604 1.28641 7.09077 1.40787C7.09967 2.04036 7.1086 2.67284 7.1175 3.30532C7.22707 3.63583 7.4364 3.72046 7.74553 3.55921C7.77992 3.52154 7.81111 3.48145 7.83906 3.43895C7.87808 2.95974 7.89144 2.4787 7.87915 1.99581C8.20875 1.99581 8.53837 1.99581 8.86796 1.99581C8.86353 1.79963 8.86796 1.60365 8.88133 1.40787C8.93606 1.28641 9.0207 1.19733 9.13521 1.14062C9.23321 1.14062 9.33118 1.14062 9.42918 1.14062C9.56655 1.20261 9.65116 1.30951 9.68307 1.46132C9.69197 2.09381 9.70089 2.72629 9.70979 3.35877C9.78457 3.56331 9.93155 3.65685 10.1507 3.63938C10.276 3.60331 10.3695 3.52759 10.4314 3.41222C10.47 2.94158 10.4833 2.46944 10.4714 1.99581C10.7921 1.99581 11.1128 1.99581 11.4335 1.99581C11.4291 1.80853 11.4335 1.62146 11.4469 1.4346C11.4896 1.29846 11.5743 1.20047 11.7008 1.14062C11.7988 1.14062 11.8968 1.14062 11.9948 1.14062C12.1213 1.20047 12.2059 1.29846 12.2486 1.4346C12.2575 2.06708 12.2665 2.69956 12.2754 3.33205C12.4195 3.66374 12.6377 3.7261 12.9301 3.51912C12.968 3.47006 12.9992 3.41661 13.0237 3.35877C13.037 2.90454 13.0415 2.45022 13.037 1.99581C13.9684 1.91281 14.5653 2.31368 14.8276 3.19843C14.8276 3.66165 14.8276 4.12489 14.8276 4.58811C10.2665 4.58811 5.70555 4.58811 1.14453 4.58811C1.14453 4.12489 1.14453 3.66165 1.14453 3.19843C1.29995 2.55752 1.70082 2.1611 2.34714 2.00918C2.80137 1.99582 3.25569 1.99136 3.7101 1.99581C3.70566 1.80853 3.71011 1.62146 3.72346 1.4346C3.7662 1.29846 3.85083 1.20047 3.97735 1.14062Z" fill="#FAC1D9"/>
<path opacity="0.989" fill-rule="evenodd" clip-rule="evenodd" d="M1.14453 5.36328C5.70555 5.36328 10.2665 5.36328 14.8276 5.36328C14.8276 8.11592 14.8276 10.8686 14.8276 13.6212C14.6672 14.2626 14.2663 14.6635 13.625 14.8238C9.86568 14.8238 6.10642 14.8238 2.34714 14.8238C1.71768 14.6665 1.31681 14.2745 1.14453 13.6479C1.14453 10.8864 1.14453 8.12482 1.14453 5.36328ZM3.44285 6.72624C4.03978 6.72178 4.63662 6.72624 5.23341 6.7396C5.39293 6.77429 5.50426 6.86783 5.56747 7.02021C5.58529 7.6616 5.58529 8.303 5.56747 8.94439C5.50426 9.09677 5.39293 9.19031 5.23341 9.225C4.63656 9.24282 4.0397 9.24282 3.44285 9.225C3.27648 9.19742 3.16513 9.10388 3.1088 8.94439C3.09098 8.303 3.09098 7.6616 3.1088 7.02021C3.17041 6.86291 3.28177 6.76494 3.44285 6.72624ZM10.7387 6.72624C11.3356 6.72178 11.9325 6.72624 12.5292 6.7396C12.6966 6.76748 12.808 6.86101 12.8633 7.02021C12.8811 7.6616 12.8811 8.303 12.8633 8.94439C12.808 9.10359 12.6966 9.19712 12.5292 9.225C11.9324 9.24282 11.3355 9.24282 10.7387 9.225C10.5792 9.19031 10.4678 9.09677 10.4046 8.94439C10.3868 8.303 10.3868 7.6616 10.4046 7.02021C10.4724 6.86748 10.5838 6.76948 10.7387 6.72624ZM8.78779 6.99349C9.15354 6.97919 9.30943 7.14846 9.25547 7.50126C9.23765 7.53688 9.21985 7.57253 9.20202 7.60815C8.76996 8.04021 8.33793 8.47224 7.90588 8.9043C7.77722 8.98162 7.6436 8.99051 7.505 8.93103C7.25192 8.70469 7.00694 8.46861 6.77008 8.22282C6.63041 7.96645 6.68833 7.76602 6.94379 7.62152C7.03286 7.60369 7.12196 7.60369 7.21103 7.62152C7.38319 7.74461 7.54354 7.88267 7.69208 8.03575C8.05048 7.67726 8.41573 7.32984 8.78779 6.99349ZM3.3894 10.1737C4.02195 10.1693 4.65444 10.1737 5.28686 10.1871C5.43384 10.2272 5.52738 10.3207 5.56747 10.4677C5.58529 11.1002 5.58529 11.7327 5.56747 12.3651C5.52738 12.5121 5.43384 12.6057 5.28686 12.6458C4.64546 12.6636 4.00407 12.6636 3.36268 12.6458C3.24242 12.5968 3.15779 12.5121 3.1088 12.3919C3.09098 11.7416 3.09098 11.0913 3.1088 10.441C3.16507 10.3089 3.25861 10.2198 3.3894 10.1737ZM7.02396 10.1737C7.66541 10.1693 8.3068 10.1737 8.94814 10.1871C9.10052 10.2503 9.19406 10.3616 9.22875 10.5211C9.24657 11.118 9.24657 11.7149 9.22875 12.3117C9.20117 12.4781 9.10763 12.5894 8.94814 12.6458C8.30675 12.6636 7.66535 12.6636 7.02396 12.6458C6.86447 12.5894 6.77093 12.4781 6.74335 12.3117C6.72553 11.7149 6.72553 11.118 6.74335 10.5211C6.78333 10.361 6.87687 10.2452 7.02396 10.1737ZM10.6852 10.1737C11.3178 10.1693 11.9503 10.1737 12.5827 10.1871C12.7183 10.2247 12.8118 10.3093 12.8633 10.441C12.8811 11.0913 12.8811 11.7416 12.8633 12.3919C12.8118 12.5236 12.7183 12.6082 12.5827 12.6458C11.9502 12.6636 11.3177 12.6636 10.6852 12.6458C10.5383 12.6057 10.4447 12.5121 10.4046 12.3651C10.3868 11.7327 10.3868 11.1002 10.4046 10.4677C10.4496 10.3203 10.5432 10.2223 10.6852 10.1737Z" fill="#FAC1D9"/>
<path opacity="0.932" fill-rule="evenodd" clip-rule="evenodd" d="M3.87109 7.5C4.18289 7.5 4.49466 7.5 4.80646 7.5C4.80646 7.8207 4.80646 8.14139 4.80646 8.46209C4.49466 8.46209 4.18289 8.46209 3.87109 8.46209C3.87109 8.14139 3.87109 7.8207 3.87109 7.5Z" fill="#FAC1D9"/>
<path opacity="0.932" fill-rule="evenodd" clip-rule="evenodd" d="M11.168 7.5C11.4798 7.5 11.7915 7.5 12.1033 7.5C12.1033 7.8207 12.1033 8.14139 12.1033 8.46209C11.7915 8.46209 11.4798 8.46209 11.168 8.46209C11.168 8.14139 11.168 7.8207 11.168 7.5Z" fill="#FAC1D9"/>
<path opacity="0.959" fill-rule="evenodd" clip-rule="evenodd" d="M3.87109 10.9492C4.18289 10.9492 4.49466 10.9492 4.80646 10.9492C4.80646 11.261 4.80646 11.5728 4.80646 11.8846C4.49466 11.8846 4.18289 11.8846 3.87109 11.8846C3.87109 11.5728 3.87109 11.261 3.87109 10.9492Z" fill="#FAC1D9"/>
<path opacity="0.932" fill-rule="evenodd" clip-rule="evenodd" d="M7.50391 10.9492C7.8246 10.9492 8.1453 10.9492 8.46599 10.9492C8.46599 11.261 8.46599 11.5728 8.46599 11.8846C8.1453 11.8846 7.8246 11.8846 7.50391 11.8846C7.50391 11.5728 7.50391 11.261 7.50391 10.9492Z" fill="#FAC1D9"/>
<path opacity="0.959" fill-rule="evenodd" clip-rule="evenodd" d="M11.168 10.9492C11.4798 10.9492 11.7915 10.9492 12.1033 10.9492C12.1033 11.261 12.1033 11.5728 12.1033 11.8846C11.7915 11.8846 11.4798 11.8846 11.168 11.8846C11.168 11.5728 11.168 11.261 11.168 10.9492Z" fill="#FAC1D9"/>
</svg>
